<svg xmlns="http://www.w3.org/2000/svg" id="svgCanvas" viewBox="0 0 1240 1000">
    <rect x="590" y="600" width="60" height="150" fill="#dddddd"></rect>
    <rect x="0" y="180" width="1240" height="40" fill="#884400"></rect>
    <path d="M0,0 L0,1000" stroke="#ccc" stroke-width="1"></path>
    <path d="M100,0 L100,1000" stroke="#ccc" stroke-width="1"></path>
    <path d="M200,0 L200,1000" stroke="#ccc" stroke-width="1"></path>
    <path d="M300,0 L300,1000" stroke="#ccc" stroke-width="1"></path>
    <path d="M400,0 L400,1000" stroke="#ccc" stroke-width="1"></path>
    <path d="M500,0 L500,1000" stroke="#ccc" stroke-width="1"></path>
    <path d="M600,0 L600,1000" stroke="#ccc" stroke-width="1"></path>
    <path d="M700,0 L700,1000" stroke="#ccc" stroke-width="1"></path>
    <path d="M800,0 L800,1000" stroke="#ccc" stroke-width="1"></path>
    <path d="M900,0 L900,1000" stroke="#ccc" stroke-width="1"></path>
    <path d="M1000,0 L1000,1000" stroke="#ccc" stroke-width="1"></path>
    <path d="M1100,0 L1100,1000" stroke="#ccc" stroke-width="1"></path>
    <path d="M1200,0 L1200,1000" stroke="#ccc" stroke-width="1"></path>
    <path d="M1300,0 L1300,1000" stroke="#ccc" stroke-width="1"></path>
    <path d="M0,0 L1300,0" stroke="#ccc" stroke-width="1"></path>
    <path d="M0,100 L1300,100" stroke="#ccc" stroke-width="1"></path>
    <path d="M0,200 L1300,200" stroke="#ccc" stroke-width="1"></path>
    <path d="M0,300 L1300,300" stroke="#ccc" stroke-width="1"></path>
    <path d="M0,400 L1300,400" stroke="#ccc" stroke-width="1"></path>
    <path d="M0,500 L1300,500" stroke="#ccc" stroke-width="1"></path>
    <path d="M0,600 L1300,600" stroke="#ccc" stroke-width="1"></path>
    <path d="M0,700 L1300,700" stroke="#ccc" stroke-width="1"></path>
    <path d="M0,800 L1300,800" stroke="#ccc" stroke-width="1"></path>
    <path d="M0,900 L1300,900" stroke="#ccc" stroke-width="1"></path>
    <path d="M0,1000 L1300,1000" stroke="#ccc" stroke-width="1"></path>
   
    <g>
        <path d="M0,0 L 1240,0 1240,1000 0,1000 0,0" fill="#00aa0055"></path>
    </g>
    <g transform="translate(1057,112)" class="plant-group" data-index="0">
        <circle r="12" fill="#cbbb10"></circle><text y="20" text-anchor="middle">limonero</text>
    </g>
    <g transform="translate(1134,119)" class="plant-group" data-index="1">
        <circle r="12" fill="#cb6a10" class="selected"></circle><text y="20" text-anchor="middle">naranjo</text>
    </g>
    <g transform="translate(981,128)" class="plant-group" data-index="2">
        <circle r="12" fill="#cb6a10"></circle><text y="20" text-anchor="middle">naranjo</text>
    </g>
    <g transform="translate(886,141)" class="plant-group" data-index="3">
        <circle r="12" fill="#dece21"></circle><text y="20" text-anchor="middle">membrillo</text>
    </g>
    <g transform="translate(767,150)" class="plant-group" data-index="4">
        <circle r="12" fill="#00ff00"></circle><text y="20" text-anchor="middle">pomelo</text>
    </g>
    <g transform="translate(571,152)" class="plant-group" data-index="5">
        <circle r="12" fill="#cb6a10"></circle><text y="20" text-anchor="middle">naranjo</text>
    </g>
    <g transform="translate(364,122)" class="plant-group" data-index="6">
        <circle r="12" fill="#cb104e"></circle><text y="20" text-anchor="middle">manzano</text>
    </g>
    <g transform="translate(267,116)" class="plant-group" data-index="7">
        <circle r="12" fill="#cb104e"></circle><text y="20" text-anchor="middle">manzano</text>
    </g>
    <g transform="translate(133,83)" class="plant-group" data-index="8">
        <circle r="12" fill="#00ff00"></circle><text y="20" text-anchor="middle">cedron</text>
    </g>
    <g transform="translate(1087,231)" class="plant-group" data-index="9">
        <circle r="12" fill="#f7a436"></circle><text y="20" text-anchor="middle">kinoto</text>
    </g>
    <g transform="translate(1006,233)" class="plant-group" data-index="10">
        <circle r="12" fill="#f7a436"></circle><text y="20" text-anchor="middle">kinoto</text>
    </g>
    <g transform="translate(784,278)" class="plant-group" data-index="11">
        <circle r="12" fill="#cb104e"></circle><text y="20" text-anchor="middle">manzano</text>
    </g>
    <g transform="translate(654,273)" class="plant-group" data-index="12">
        <circle r="12" fill="#00ff00"></circle><text y="20" text-anchor="middle">ciruelo</text>
    </g>
    <g transform="translate(591,318)" class="plant-group" data-index="13">
        <circle r="12" fill="#cbbb10"></circle><text y="20" text-anchor="middle">limonero</text>
    </g>
    <g transform="translate(301,281)" class="plant-group" data-index="14">
        <circle r="12" fill="#cb9010"></circle><text y="20" text-anchor="middle">duraznero</text>
    </g>
    <g transform="translate(111,234)" class="plant-group" data-index="15">
        <circle r="12" fill="#0d4d10"></circle><text y="20" text-anchor="middle">guayaba</text>
    </g>
    <g transform="translate(201,368)" class="plant-group" data-index="16">
        <circle r="12" fill="#cb3c10"></circle><text y="20" text-anchor="middle">kaqui</text>
    </g>
    <g transform="translate(131,388)" class="plant-group" data-index="17">
        <circle r="12" fill="#cb104e"></circle><text y="20" text-anchor="middle">manzano</text>
    </g>
    <g transform="translate(404,346)" class="plant-group" data-index="18">
        <circle r="12" fill="#00ff00"></circle><text y="20" text-anchor="middle">citrico</text>
    </g>
    <g transform="translate(938,349)" class="plant-group" data-index="19">
        <circle r="12" fill="#00ff00"></circle><text y="20" text-anchor="middle">mandarino</text>
    </g>
    <g transform="translate(506,292)" class="plant-group" data-index="20">
        <circle r="12" fill="#cb104e"></circle><text y="20" text-anchor="middle">manzano</text>
    </g>
    <g transform="translate(845,372)" class="plant-group" data-index="21">
        <circle r="12" fill="#cb104e"></circle><text y="20" text-anchor="middle">manzano</text>
    </g>
    <g transform="translate(798,423)" class="plant-group" data-index="22">
        <circle r="12" fill="#cb104e"></circle><text y="20" text-anchor="middle">manzano</text>
    </g>
    <g transform="translate(819,516)" class="plant-group" data-index="23">
        <circle r="12" fill="#cb104e"></circle><text y="20" text-anchor="middle">manzano</text>
    </g>
    <g transform="translate(970,448)" class="plant-group" data-index="24">
        <circle r="12" fill="#cbbb10"></circle><text y="20" text-anchor="middle">limonero</text>
    </g>
    <g transform="translate(1036,513)" class="plant-group" data-index="25">
        <circle r="12" fill="#cbbb10"></circle><text y="20" text-anchor="middle">limonero</text>
    </g>
    <g transform="translate(844,586)" class="plant-group" data-index="26">
        <circle r="12" fill="#cb104e"></circle><text y="20" text-anchor="middle">manzano</text>
    </g>
    <g transform="translate(920,630)" class="plant-group" data-index="27">
        <circle r="12" fill="#dece21"></circle><text y="20" text-anchor="middle">membrillo</text>
    </g>
    <g transform="translate(973,673)" class="plant-group" data-index="28">
        <circle r="12" fill="#dece21"></circle><text y="20" text-anchor="middle">membrillo</text>
    </g>
    <g transform="translate(681,566)" class="plant-group" data-index="29">
        <circle r="12" fill="#6110cb"></circle><text y="20" text-anchor="middle">parral</text>
    </g>
    <g transform="translate(582,563)" class="plant-group" data-index="30">
        <circle r="12" fill="#6110cb"></circle><text y="20" text-anchor="middle">parral</text>
    </g>
    <g transform="translate(470,547)" class="plant-group" data-index="31">
        <circle r="12" fill="#a910cb"></circle><text y="20" text-anchor="middle">cerezo</text>
    </g>
    <g transform="translate(496,463)" class="plant-group" data-index="32">
        <circle r="12" fill="#a910cb"></circle><text y="20" text-anchor="middle">cerezo</text>
    </g>
    <g transform="translate(332,376)" class="plant-group" data-index="33">
        <circle r="12" fill="#cb9010"></circle><text y="20" text-anchor="middle">duraznero</text>
    </g>
    <g transform="translate(102,649)" class="plant-group" data-index="34">
        <circle r="12" fill="#00ff00"></circle><text y="20" text-anchor="middle">pecan</text>
    </g>
    <g transform="translate(68,578)" class="plant-group" data-index="35">
        <circle r="12" fill="#0d4d10"></circle><text y="20" text-anchor="middle">guayaba</text>
    </g>
    <g transform="translate(160,510)" class="plant-group" data-index="36">
        <circle r="12" fill="#cb9010"></circle><text y="20" text-anchor="middle">duraznero</text>
    </g>
    <g transform="translate(245,478)" class="plant-group" data-index="37">
        <circle r="12" fill="#cb104e"></circle><text y="20" text-anchor="middle">manzano</text>
    </g>
    <g transform="translate(442,704)" class="plant-group" data-index="38">
        <circle r="12" fill="#00ff00"></circle><text y="20" text-anchor="middle">higuera</text>
    </g>
    <g transform="translate(434,828)" class="plant-group" data-index="39">
        <circle r="12" fill="#00ff00"></circle><text y="20" text-anchor="middle">higuera</text>
    </g>
    <g transform="translate(304,875)" class="plant-group" data-index="40">
        <circle r="12" fill="#00ff00"></circle><text y="20" text-anchor="middle">higuera</text>
    </g>
    <g transform="translate(292,826)" class="plant-group" data-index="41">
        <circle r="12" fill="#00ff00"></circle><text y="20" text-anchor="middle">higuera</text>
    </g>
    <g transform="translate(247,843)" class="plant-group" data-index="42">
        <circle r="12" fill="#00ff00"></circle><text y="20" text-anchor="middle">higuera</text>
    </g>
    <g transform="translate(161,860)" class="plant-group" data-index="43">
        <circle r="12" fill="#0d4d10"></circle><text y="20" text-anchor="middle">guayaba</text>
    </g>
    <g transform="translate(473,874)" class="plant-group" data-index="44">
        <circle r="12" fill="#cb6a10"></circle><text y="20" text-anchor="middle">naranjo</text>
    </g>
    <g transform="translate(638,802)" class="plant-group" data-index="45">
        <circle r="12" fill="#cbbb10"></circle><text y="20" text-anchor="middle">limonero</text>
    </g>
    <g transform="translate(620,765)" class="plant-group" data-index="46">
        <circle r="12" fill="#f7a436"></circle><text y="20" text-anchor="middle">kinoto</text>
    </g>
    <g transform="translate(711,758)" class="plant-group" data-index="47">
        <circle r="12" fill="#00ff00"></circle><text y="20" text-anchor="middle">higuera</text>
    </g>
</svg>